<?xml version="1.0" encoding="utf-8"?>
<!-- Generator: Adobe Illustrator 19.0.0, SVG Export Plug-In . SVG Version: 6.00 Build 0)  -->
<svg version="1.1" id="Layer_1" xmlns="http://www.w3.org/2000/svg" xmlns:xlink="http://www.w3.org/1999/xlink" x="0px" y="0px"
	 viewBox="0 0 1000 1000" style="enable-background:new 0 0 1000 1000;" xml:space="preserve">
<style type="text/css">
	.st0{fill:none;}
	.st1{fill:#494EA1;}
	.st2{opacity:0.45;clip-path:url(#SVGID_2_);enable-background:new    ;}
	.st3{clip-path:url(#SVGID_4_);fill:#E5E5E5;}
	.st4{clip-path:url(#SVGID_6_);fill:#AFAFB0;}
	.st5{clip-path:url(#SVGID_8_);fill:#FEE600;}
	.st6{clip-path:url(#SVGID_10_);fill:#FDE500;}
</style>
<g>
	<circle class="st0" cx="500" cy="500" r="450.1"/>
	<circle id="XMLID_2_" class="st1" cx="500" cy="500" r="450.1"/>
	<g>
		<defs>
			<circle id="SVGID_1_" cx="500" cy="500" r="450.1"/>
		</defs>
		<clipPath id="SVGID_2_">
			<use xlink:href="#SVGID_1_"  style="overflow:visible;"/>
		</clipPath>
		<polygon id="XMLID_6_" class="st2" points="1014.7,627.2 650.2,991.7 436,777.5 632.4,245.1 		"/>
	</g>
	<g>
		<defs>
			<circle id="SVGID_3_" cx="500" cy="500" r="450.1"/>
		</defs>
		<clipPath id="SVGID_4_">
			<use xlink:href="#SVGID_3_"  style="overflow:visible;"/>
		</clipPath>
		<rect id="XMLID_5_" x="433.9" y="666.5" class="st3" width="132.2" height="103.1"/>
	</g>
	<circle class="st0" cx="500" cy="500" r="450.1"/>
	<g id="XMLID_8_">
		<g id="XMLID_4_">
			<g>
				<defs>
					<rect id="SVGID_5_" x="320.3" y="190.9" width="359.3" height="620.1"/>
				</defs>
				<clipPath id="SVGID_6_">
					<use xlink:href="#SVGID_5_"  style="overflow:visible;"/>
				</clipPath>
				<path class="st4" d="M679.7,370.6c0-99.2-80.4-179.7-179.7-179.7c-99.2,0-179.7,80.4-179.7,179.7c0,33.1,9.1,63.9,24.7,90.6
					l-0.1,0.1c0,0,0.6,0.9,1.5,2.2c2.6,4.3,5.4,8.5,8.4,12.6c17.4,27.2,51.1,86.3,46.9,129.2c0,17.7,9.8,32.9,24,40.6v33.3
					c9.7,0,16.9,0.3,34,0c28.8-0.5,79.2-2.9,114.6-9.8v-23.6c13.9-7.8,23.5-22.8,23.5-40.4c-4.2-42.5,29.3-101.1,46.9-128.5
					c3.2-4.3,6.2-8.8,9-13.4c0.9-1.2,1.5-2.1,1.5-2.1l-0.1-0.1C670.6,434.5,679.7,403.6,679.7,370.6L679.7,370.6z M425.7,696.2v17.3
					c7.3,0,20.7,0.1,34.6-0.2c28.6-0.5,78.6-2.9,114-9.7v-17.7c-37,7.3-85,9.5-114.3,10.1C446.1,696.3,433,696.3,425.7,696.2
					L425.7,696.2z M426.4,764.6c2.8,4.9,13.5,22.2,28.4,22.2h0.6c0.5,0.7,0.8,1.5,1.6,2c11.3,8.1,10.6,15.5,15.5,19S500,811,500,811
					s22.6,0.4,27.5-3.2c4.9-3.5,4.2-10.9,15.5-19c0.7-0.5,1-1.3,1.6-2h0.6c17.4,0,29.2-23.5,29.2-23.5v-8.7
					c-36.8,7.1-84,9.3-113.1,9.9C447,764.8,433.6,764.7,426.4,764.6L426.4,764.6z M425.7,730.4v17.3c7.2,0.1,20.9,0.1,35.3-0.2
					c28.5-0.5,78-2.9,113.4-9.6v-17.7c-36.9,7.2-84.5,9.4-113.7,10C446.3,730.5,432.9,730.5,425.7,730.4L425.7,730.4z"/>
			</g>
		</g>
		<g>
			<defs>
				<circle id="SVGID_7_" cx="500.2" cy="500" r="450.1"/>
			</defs>
			<clipPath id="SVGID_8_">
				<use xlink:href="#SVGID_7_"  style="overflow:visible;"/>
			</clipPath>
			<path id="XMLID_3_" class="st5" d="M500.2,189c0,0-77.9-1.5-132.4,56.1c-25.8,27.3-51.5,69.2-51.5,128.6
				c0,54.2,20.6,80.6,34.6,106.5c24.2,44.8,47.8,71,47.8,116.3c0,54.7,25.5,58.2,25.5,58.2l75.9-0.6V189H500.2z"/>
		</g>
		<g>
			<defs>
				<circle id="SVGID_9_" cx="500" cy="500" r="450.1"/>
			</defs>
			<clipPath id="SVGID_10_">
				<use xlink:href="#SVGID_9_"  style="overflow:visible;"/>
			</clipPath>
			<path id="XMLID_1_" class="st6" d="M499.8,189c0,0,77.9-1.5,132.4,56.1c25.8,27.3,51.5,69.2,51.5,128.6
				c0,54.2-20.6,80.6-34.6,106.5c-24.2,44.8-47.8,71-47.8,116.3c0,54.7-25.5,58.2-25.5,58.2l-75.9-0.6V189H499.8z"/>
		</g>
	</g>
</g>
</svg>
