<?xml version="1.0" encoding="utf-8"?>
<!-- Generator: Adobe Illustrator 18.1.0, SVG Export Plug-In . SVG Version: 6.00 Build 0)  -->
<svg version="1.1" id="Layer_1" xmlns:sketch="http://www.bohemiancoding.com/sketch/ns"
	 xmlns="http://www.w3.org/2000/svg" xmlns:xlink="http://www.w3.org/1999/xlink" x="0px" y="0px" viewBox="476.5 2 160 153"
	 enable-background="new 476.5 2 160 153" xml:space="preserve">
<title>Slice 1</title>
<desc>Created with Sketch.</desc>
<g id="Page-1" sketch:type="MSPage">
	<g id="logo" sketch:type="MSLayerGroup">
		<g id="Group" sketch:type="MSShapeGroup">
			<circle id="Oval" fill="none" cx="556.9" cy="78.5" r="74.9"/>
			<circle id="XMLID_2_" fill="#494EA1" cx="556.9" cy="78.5" r="74.9"/>
			<path opacity="0.45" enable-background="new    " d="M578.9,36.1l-32.7,88.6l28.2,26.7c0.1,0.1,20.4-4.3,36.1-20.6
				c16.9-17.5,20.2-39.5,20.2-39.5L578.9,36.1z"/>
			<rect id="XMLID_5_" x="545.9" y="106.2" fill="#E5E5E5" width="22" height="17.2"/>
			<path id="Oval_1_" fill="none" d="M556.9,3.6c41.4,0,74.9,33.5,74.9,74.9c0,20.4-7.6,38-21.3,52.3c-13,13.6-32.6,22.6-53.6,22.6
				c-41.4,0-74.9-33.5-74.9-74.9S515.5,3.6,556.9,3.6z"/>
			<g id="XMLID_8_" transform="translate(267.000000, 139.000000)">
				<g id="XMLID_4_" transform="translate(4.000000, 2.000000)">
					<path id="Shape" fill="#AFAFB0" d="M315.8-84c0-16.5-13.4-29.9-29.9-29.9S256-100.5,256-84c0,5.5,1.5,10.6,4.1,15.1l0,0
						c0,0,0.1,0.1,0.2,0.4c0.4,0.7,0.9,1.4,1.4,2.1c2.9,4.5,8.5,14.4,7.8,21.5c0,2.9,1.6,5.5,4,6.8v5.5c1.6,0,2.8,0,5.7,0
						c4.8-0.1,13.2-0.5,19.1-1.6v-3.9c2.3-1.3,3.9-3.8,3.9-6.7c-0.7-7.1,4.9-16.8,7.8-21.4c0.5-0.7,1-1.5,1.5-2.2
						c0.1-0.2,0.2-0.3,0.2-0.3l0,0C314.3-73.4,315.8-78.5,315.8-84L315.8-84L315.8-84z M273.5-29.8v2.9c1.2,0,3.4,0,5.8,0
						c4.8-0.1,13.1-0.5,19-1.6v-2.9c-6.2,1.2-14.2,1.6-19,1.7C276.9-29.8,274.7-29.8,273.5-29.8L273.5-29.8L273.5-29.8z M273.6-18.4
						c0.5,0.8,2.2,3.7,4.7,3.7h0.1c0.1,0.1,0.1,0.2,0.3,0.3c1.9,1.3,1.8,2.6,2.6,3.2s4.6,0.5,4.6,0.5s3.8,0.1,4.6-0.5
						c0.8-0.6,0.7-1.8,2.6-3.2c0.1-0.1,0.2-0.2,0.3-0.3h0.1c2.9,0,4.9-3.9,4.9-3.9V-20c-6.1,1.2-14,1.5-18.8,1.6
						C277-18.4,274.8-18.4,273.6-18.4L273.6-18.4L273.6-18.4z M273.5-24.1v2.9c1.2,0,3.5,0,5.9,0c4.7-0.1,13-0.5,18.9-1.6v-2.9
						c-6.1,1.2-14.1,1.6-18.9,1.7C276.9-24.1,274.7-24.1,273.5-24.1L273.5-24.1L273.5-24.1z"/>
				</g>
				<path id="XMLID_3_" fill="#FEE600" d="M289.9-112.3c0,0-13-0.2-22,9.3c-4.3,4.5-8.6,11.5-8.6,21.4c0,9,3.4,13.4,5.8,17.7
					c4,7.5,8,11.8,8,19.4c0,9.1,4.2,9.7,4.2,9.7l12.6-0.1V-112.3L289.9-112.3L289.9-112.3z"/>
				<path id="XMLID_1_" fill="#FDE500" d="M289.8-112.3c0,0,13-0.2,22,9.3c4.3,4.5,8.6,11.5,8.6,21.4c0,9-3.4,13.4-5.8,17.7
					c-4,7.5-8,11.8-8,19.4c0,9.1-4.2,9.7-4.2,9.7l-12.6-0.1V-112.3L289.8-112.3L289.8-112.3z"/>
			</g>
			<rect id="Rectangle-2" x="554.4" y="29.2" fill="#FDE500" width="4.3" height="74.8"/>
		</g>
	</g>
</g>
</svg>
