<?xml version="1.0" encoding="UTF-8" standalone="no"?>
<svg width="966px" height="943px" viewBox="0 0 966 943" version="1.1" xmlns="http://www.w3.org/2000/svg" xmlns:xlink="http://www.w3.org/1999/xlink" xmlns:sketch="http://www.bohemiancoding.com/sketch/ns">
    <!-- Generator: Sketch 3.3.2 (12043) - http://www.bohemiancoding.com/sketch -->
    <title>Slice 1</title>
    <desc>Created with Sketch.</desc>
    <defs></defs>
    <g id="Page-1" stroke="none" stroke-width="1" fill="none" fill-rule="evenodd" sketch:type="MSPage">
        <g id="logo" sketch:type="MSLayerGroup">
            <g id="Group" sketch:type="MSShapeGroup">
                <circle id="Oval" cx="451" cy="451" r="450.1"></circle>
                <circle id="XMLID_2_" fill="#494EA1" cx="451" cy="451" r="450.1"></circle>
                <path d="M965.7,578.2 L601.2,942.7 L387,728.5 L583.4,196.1 L965.7,578.2 Z" id="XMLID_6_" opacity="0.45" fill="#000000"></path>
                <rect id="XMLID_5_" fill="#E5E5E5" x="384.9" y="617.5" width="132.2" height="103.1"></rect>
                <circle id="Oval" cx="451" cy="451" r="450.1"></circle>
                <g id="XMLID_8_" transform="translate(267.000000, 139.000000)">
                    <g id="XMLID_4_" transform="translate(4.000000, 2.000000)" fill="#AFAFB0">
                        <path d="M359.7,180.6 C359.7,81.4 279.3,0.9 180,0.9 C80.8,0.9 0.3,81.3 0.3,180.6 C0.3,213.7 9.4,244.5 25,271.2 L24.9,271.3 C24.9,271.3 25.5,272.2 26.4,273.5 C29,277.8 31.8,282 34.8,286.1 C52.2,313.3 85.9,372.4 81.7,415.3 C81.7,433 91.5,448.2 105.7,455.9 L105.7,489.2 C115.4,489.2 122.6,489.5 139.7,489.2 C168.5,488.7 218.9,486.3 254.3,479.4 L254.3,455.8 C268.2,448 277.8,433 277.8,415.4 C273.6,372.9 307.1,314.3 324.7,286.9 C327.9,282.6 330.9,278.1 333.7,273.5 C334.6,272.3 335.2,271.4 335.2,271.4 L335.1,271.3 C350.6,244.5 359.7,213.6 359.7,180.6 L359.7,180.6 L359.7,180.6 Z M105.7,506.2 L105.7,523.5 C113,523.5 126.4,523.6 140.3,523.3 C168.9,522.8 218.9,520.4 254.3,513.6 L254.3,495.9 C217.3,503.2 169.3,505.4 140,506 C126.1,506.3 113,506.3 105.7,506.2 L105.7,506.2 L105.7,506.2 Z M106.4,574.6 C109.2,579.5 119.9,596.8 134.8,596.8 L135.4,596.8 C135.9,597.5 136.2,598.3 137,598.8 C148.3,606.9 147.6,614.3 152.5,617.8 C157.4,621.3 180,621 180,621 C180,621 202.6,621.4 207.5,617.8 C212.4,614.3 211.7,606.9 223,598.8 C223.7,598.3 224,597.5 224.6,596.8 L225.2,596.8 C242.6,596.8 254.4,573.3 254.4,573.3 L254.4,564.6 C217.6,571.7 170.4,573.9 141.3,574.5 C127,574.8 113.6,574.7 106.4,574.6 L106.4,574.6 L106.4,574.6 Z M105.7,540.4 L105.7,557.7 C112.9,557.8 126.6,557.8 141,557.5 C169.5,557 219,554.6 254.4,547.9 L254.4,530.2 C217.5,537.4 169.9,539.6 140.7,540.2 C126.3,540.5 112.9,540.5 105.7,540.4 L105.7,540.4 L105.7,540.4 Z" id="Shape"></path>
                    </g>
                    <path d="M184.2,1 C184.2,1 106.3,-0.5 51.8,57.1 C26,84.4 0.3,126.3 0.3,185.7 C0.3,239.9 20.9,266.3 34.9,292.2 C59.1,337 82.7,363.2 82.7,408.5 C82.7,463.2 108.2,466.7 108.2,466.7 L184.1,466.1 L184.1,1 L184.2,1 L184.2,1 Z" id="XMLID_3_" fill="#FEE600"></path>
                    <path d="M183.8,1 C183.8,1 261.7,-0.5 316.2,57.1 C342,84.4 367.7,126.3 367.7,185.7 C367.7,239.9 347.1,266.3 333.1,292.2 C308.9,337 285.3,363.2 285.3,408.5 C285.3,463.2 259.8,466.7 259.8,466.7 L183.9,466.1 L183.9,1 L183.8,1 L183.8,1 Z" id="XMLID_1_" fill="#FDE500"></path>
                </g>
                <rect id="Rectangle-2" fill="#FDE500" x="436" y="155" width="26" height="449"></rect>
            </g>
        </g>
    </g>
</svg>