<?xml version="1.0" encoding="utf-8"?>
<!-- Generator: Adobe Illustrator 18.1.0, SVG Export Plug-In . SVG Version: 6.00 Build 0)  -->
<svg version="1.1" id="Layer_1" xmlns:sketch="http://www.bohemiancoding.com/sketch/ns"
	 xmlns="http://www.w3.org/2000/svg" xmlns:xlink="http://www.w3.org/1999/xlink" x="0px" y="0px" viewBox="-73 -393 966 943"
	 enable-background="new -73 -393 966 943" xml:space="preserve">
<title>Slice 1</title>
<desc>Created with Sketch.</desc>
<g id="Page-1" sketch:type="MSPage">
	<g id="logo" sketch:type="MSLayerGroup">
		<g id="Group" sketch:type="MSShapeGroup">
			<circle id="Oval" fill="none" cx="378" cy="58" r="450.1"/>
			<circle id="XMLID_2_" fill="#494EA1" cx="378" cy="58" r="450.1"/>
			<path opacity="0.45" enable-background="new    " d="M510.4-196.9L314,335.5l169.1,160.2c0.5,0.5,121.9-26.7,217.1-123.5
				c90.8-92.3,121.6-237,121.6-237L510.4-196.9z"/>
			<rect id="XMLID_5_" x="311.9" y="224.5" fill="#E5E5E5" width="132.2" height="103.1"/>
			<path id="Oval_1_" fill="none" d="M378-392.1c248.6,0,450.1,201.5,450.1,450.1c0,122.3-45.6,228.3-127.9,314.3
				C622,454,504.3,508.1,378,508.1C129.4,508.1-72.1,306.6-72.1,58S129.4-392.1,378-392.1z"/>
			<g id="XMLID_8_" transform="translate(267.000000, 139.000000)">
				<g id="XMLID_4_" transform="translate(4.000000, 2.000000)">
					<path id="Shape" fill="#AFAFB0" d="M286.7-212.4c0-99.2-80.4-179.7-179.7-179.7c-99.2,0-179.7,80.4-179.7,179.7
						c0,33.1,9.1,63.9,24.7,90.6l-0.1,0.1c0,0,0.6,0.9,1.5,2.2c2.6,4.3,5.4,8.5,8.4,12.6C-20.8-79.7,12.9-20.6,8.7,22.3
						c0,17.7,9.8,32.9,24,40.6v33.3c9.7,0,16.9,0.3,34,0c28.8-0.5,79.2-2.9,114.6-9.8V62.8c13.9-7.8,23.5-22.8,23.5-40.4
						c-4.2-42.5,29.3-101.1,46.9-128.5c3.2-4.3,6.2-8.8,9-13.4c0.9-1.2,1.5-2.1,1.5-2.1l-0.1-0.1
						C277.6-148.5,286.7-179.4,286.7-212.4L286.7-212.4L286.7-212.4z M32.7,113.2v17.3c7.3,0,20.7,0.1,34.6-0.2
						c28.6-0.5,78.6-2.9,114-9.7v-17.7c-37,7.3-85,9.5-114.3,10.1C53.1,113.3,40,113.3,32.7,113.2L32.7,113.2L32.7,113.2z
						 M33.4,181.6c2.8,4.9,13.5,22.2,28.4,22.2h0.6c0.5,0.7,0.8,1.5,1.6,2c11.3,8.1,10.6,15.5,15.5,19S107,228,107,228
						s22.6,0.4,27.5-3.2c4.9-3.5,4.2-10.9,15.5-19c0.7-0.5,1-1.3,1.6-2h0.6c17.4,0,29.2-23.5,29.2-23.5v-8.7
						c-36.8,7.1-84,9.3-113.1,9.9C54,181.8,40.6,181.7,33.4,181.6L33.4,181.6L33.4,181.6z M32.7,147.4v17.3
						c7.2,0.1,20.9,0.1,35.3-0.2c28.5-0.5,78-2.9,113.4-9.6v-17.7c-36.9,7.2-84.5,9.4-113.7,10C53.3,147.5,39.9,147.5,32.7,147.4
						L32.7,147.4L32.7,147.4z"/>
				</g>
				<path id="XMLID_3_" fill="#FEE600" d="M111.2-392c0,0-77.9-1.5-132.4,56.1c-25.8,27.3-51.5,69.2-51.5,128.6
					c0,54.2,20.6,80.6,34.6,106.5C-13.9-56,9.7-29.8,9.7,15.5c0,54.7,25.5,58.2,25.5,58.2l75.9-0.6L111.2-392L111.2-392L111.2-392z"
					/>
				<path id="XMLID_1_" fill="#FDE500" d="M110.8-392c0,0,77.9-1.5,132.4,56.1c25.8,27.3,51.5,69.2,51.5,128.6
					c0,54.2-20.6,80.6-34.6,106.5c-24.2,44.8-47.8,71-47.8,116.3c0,54.7-25.5,58.2-25.5,58.2l-75.9-0.6L110.8-392L110.8-392
					L110.8-392z"/>
			</g>
			<rect id="Rectangle-2" x="363" y="-238" fill="#FDE500" width="26" height="449"/>
		</g>
	</g>
</g>
</svg>
